<?xml version="1.0" encoding="utf-8"?>
<!-- Generator: Adobe Illustrator 27.0.1, SVG Export Plug-In . SVG Version: 6.00 Build 0)  -->
<svg version="1.1" id="Layer_1" xmlnsSerif="http://www.serif.com/"
	 xmlns="http://www.w3.org/2000/svg" xmlnsXlink="http://www.w3.org/1999/xlink" x="0px" y="0px" viewBox="0 0 1024 1024"
	 style="enable-background:new 0 0 1024 1024;" xmlSpace="preserve">
<style type="text/css">
	.st0{fill-rule:evenodd;clip-rule:evenodd;fill:#FFFFFF;}
</style>
<g>
	<path class="st0" d="M360,272v208c0,8.8,7.2,16,16,16h120c4.4,0,8,3.6,8,8v32c0,4.4-3.6,8-8,8H336c-13.2,0-24-10.8-24-24V232
		c0-13.2,10.8-24,24-24h160c4.4,0,8,3.6,8,8v32c0,4.4-3.6,8-8,8H376C367.2,256,360,263.2,360,272z"/>
	<path class="st0" d="M568,184v16c0,4.4,3.6,8,8,8h112c13.2,0,24,10.8,24,24v288c0,13.2-10.8,24-24,24H528c-4.4,0-8-3.6-8-8v-32
		c0-4.4,3.6-8,8-8h120c8.8,0,16-7.2,16-16V272c0-8.8-7.2-16-16-16H528c-4.4,0-8-3.6-8-8v-96c0-13.2,10.8-24,24-24h160
		c4.4,0,8,3.6,8,8v32c0,4.4-3.6,8-8,8H576C571.6,176,568,179.6,568,184z"/>
	<path class="st0" d="M820,792H528c-4.4,0-8-3.6-8-8v-32c0-4.4,3.6-8,8-8h244c0.5,0,1,0,1.5-0.1c10.9-0.8,17.2-10.2,15.2-22
		c-0.2-0.8-0.3-1.7-0.6-2.5L773.6,666v-0.1v-0.1c-1.5-5.4-7.4-9.8-13.1-9.8H528c-4.4,0-8-3.6-8-8v-80c0-4.4,3.6-8,8-8h176
		c4.4,0,8,3.6,8,8v24c0,4.4-3.6,8-8,8H564c-2.2,0-4,1.8-4,4v8c0,2.2,1.8,4,4,4h216c11,0,22.8,8.6,26.2,19.6l6.5,20.4l28,88l3.4,10.7
		C850.6,775,839.9,792,820,792z"/>
	<path class="st0" d="M235.2,722c-2,11.7,4.3,21.1,15.2,22c0.5,0,1.1,0.1,1.6,0.1h229.2c12.6,0,22.8,10.3,22.8,23.4V848
		c0,13.2-10.8,24-24,24H176c-4.4,0-8-3.6-8-8v-32c0-4.4,3.6-8,8-8h272c4.4,0,8-3.6,8-8v-16c0-4.4-3.6-8-8-8H204
		c-19.9,0-30.6-17-24.1-37.3l3.4-10.7l28-88l6.5-20.4C221.3,624.7,233,616,244,616h252c4.4,0,8,3.6,8,8v24c0,4.4-3.6,8-8,8H263.5
		c-5.7,0-11.6,4.3-13.1,9.8v0.1v0.1l-14.6,53.4C235.6,720.3,235.4,721.1,235.2,722z"/>
</g>
</svg>
